<svg aria-hidden="true" style="position: absolute; width: 0; height: 0; overflow: hidden;" version="1.1" xmlns="http://www.w3.org/2000/svg" xmlns:xlink="http://www.w3.org/1999/xlink">
<defs>
<symbol id="icon-youtube" viewBox="0 0 32 32">
<path d="M30.881 13.407c0-0.609-0.053-1.402-0.159-2.355-0.079-0.958-0.21-1.826-0.395-2.674l0.024 0.133c-0.181-0.841-0.603-1.564-1.19-2.114l-0.002-0.002c-0.607-0.583-1.322-0.899-2.143-1.005-2.54-0.291-6.403-0.424-11.564-0.424-5.158 0-9.022 0.132-11.562 0.424-0.82 0.106-1.534 0.423-2.143 1.005-0.589 0.552-1.011 1.275-1.187 2.090l-0.005 0.027c-0.184 0.742-0.29 1.589-0.397 2.541-0.078 0.952-0.131 1.746-0.159 2.355v2.593c0 1.111 0 1.959 0.026 2.593 0 0.609 0.053 1.402 0.159 2.355 0.053 0.953 0.185 1.8 0.344 2.541 0.184 0.846 0.582 1.534 1.191 2.116 0.608 0.583 1.323 0.899 2.143 1.005 2.54 0.291 6.404 0.424 11.564 0.424s9.023-0.132 11.564-0.424c0.82-0.079 1.534-0.423 2.143-1.005 0.588-0.552 1.010-1.275 1.186-2.090l0.005-0.027c0.185-0.742 0.291-1.589 0.397-2.541 0.079-0.952 0.132-1.746 0.159-2.355 0-0.608 0.026-1.482 0.026-2.593s0-1.959-0.026-2.593zM21.566 16.927l-8.839 5.529c-0.162 0.115-0.364 0.184-0.581 0.185h-0c-0.194-0.007-0.375-0.055-0.537-0.136l0.008 0.003c-0.37-0.212-0.582-0.53-0.582-0.979v-11.034c0-0.45 0.185-0.767 0.583-0.979s0.767-0.185 1.111 0.026l8.838 5.53c0.344 0.185 0.53 0.502 0.53 0.926-0.026 0.424-0.185 0.74-0.53 0.927z"></path>
</symbol>
<symbol id="icon-twitter" viewBox="0 0 32 32">
<path d="M31.999 6.239c-1.247 0.522-2.524 0.86-3.77 1.012 1.434-0.828 2.368-2.025 2.897-3.56-1.204 0.696-2.603 1.229-4.089 1.521l-0.087 0.014c-1.307-1.35-2.897-2.026-4.797-2.026-1.807 0-3.366 0.645-4.643 1.903-1.277 1.258-1.933 2.793-1.933 4.573 0 0.492 0.064 0.982 0.156 1.473-2.772-0.123-5.349-0.847-7.64-2.043l0.101 0.048c-2.355-1.214-4.344-2.81-5.962-4.729l-0.024-0.029c-0.567 0.929-0.903 2.052-0.904 3.253v0c0 1.106 0.25 2.149 0.78 3.069 0.524 0.938 1.238 1.711 2.095 2.288l0.024 0.015c-1.093-0.026-2.11-0.331-2.989-0.845l0.029 0.016v0.092c0 1.565 0.499 2.917 1.495 4.114 0.998 1.166 2.244 1.933 3.771 2.24-0.562 0.154-1.153 0.215-1.715 0.215-0.372 0-0.778-0.031-1.245-0.092 0.406 1.29 1.184 2.364 2.305 3.192 1.123 0.829 2.4 1.26 3.834 1.29-2.368 1.841-5.111 2.762-8.133 2.762-0.591 0-1.121-0.031-1.588-0.092 3.054 1.933 6.419 2.885 10.065 2.885 2.337 0 4.518-0.369 6.575-1.075 2.056-0.736 3.802-1.687 5.235-2.915 1.428-1.218 2.663-2.601 3.692-4.134l0.046-0.072c0.973-1.429 1.77-3.080 2.304-4.845l0.033-0.128c0.499-1.719 0.78-3.469 0.78-5.188 0-0.367 0-0.644-0.032-0.828 1.313-0.929 2.42-2.049 3.307-3.332l0.029-0.044z"></path>
</symbol>
<symbol id="icon-star" viewBox="0 0 32 32">
<path d="M15.489 25.906l7.385 4.502c1.441 0.901 3.062-0.359 2.702-1.982l-1.982-8.465 6.665-5.762c1.262-1.081 0.542-3.062-1.081-3.243l-8.645-0.72-3.422-7.925c-0.312-0.644-0.961-1.081-1.711-1.081s-1.399 0.436-1.706 1.069l-0.005 0.011-3.422 8.105-8.646 0.721c-1.621 0-2.161 1.982-1.079 3.062l6.665 5.762-1.982 8.466c-0.361 1.621 1.26 2.702 2.702 1.982l7.564-4.505z"></path>
</symbol>
<symbol id="icon-logo" viewBox="0 0 32 32">
<path fill="#1abe84" style="fill: var(--color2, #1abe84)" d="M32 16c0 8.837-7.163 16-16 16s-16-7.163-16-16c0-8.837 7.163-16 16-16s16 7.163 16 16z"></path>
<path fill="#fb8f1d" style="fill: var(--color3, #fb8f1d); stroke: var(--color4, #fff)" stroke="#fff" stroke-linejoin="miter" stroke-linecap="butt" stroke-miterlimit="4" stroke-width="2.3415" d="M23.024 16c0 3.879-3.145 7.024-7.024 7.024s-7.024-3.145-7.024-7.024c0-3.879 3.145-7.024 7.024-7.024s7.024 3.145 7.024 7.024z"></path>
</symbol>
<symbol id="icon-linkedin" viewBox="0 0 32 32">
<path d="M7.257 10.643h-6.873v20.661h6.873v-20.661zM29.827 12.53c-1.439-1.568-3.357-2.368-5.722-2.368-0.863 0-1.663 0.097-2.399 0.32-0.703 0.224-1.311 0.512-1.823 0.896-0.479 0.384-0.895 0.736-1.183 1.088-0.287 0.32-0.543 0.671-0.799 1.087v-2.943h-6.841l0.032 0.992c0 0.672 0.032 2.719 0.032 6.173 0 3.453 0 7.93-0.032 13.496h6.841v-11.513c0-0.704 0.064-1.28 0.223-1.695 0.289-0.704 0.737-1.312 1.312-1.792 0.576-0.48 1.311-0.703 2.205-0.703 1.183 0 2.079 0.415 2.621 1.247 0.576 0.832 0.832 1.983 0.832 3.423v11.033h6.841v-11.833c0.032-3.039-0.672-5.341-2.143-6.908zM3.868 0.696c-1.151 0-2.077 0.352-2.781 1.024-0.735 0.671-1.087 1.503-1.087 2.527 0 1.023 0.352 1.855 1.055 2.559 0.704 0.672 1.6 1.023 2.749 1.023h0.032c1.183 0 2.111-0.351 2.813-1.023 0.704-0.672 1.055-1.536 1.055-2.56 0-1.023-0.383-1.887-1.055-2.557-0.703-0.64-1.631-0.992-2.781-0.992z"></path>
</symbol>
<symbol id="icon-instagram" viewBox="0 0 32 32">
<path d="M23.171 0h-14.342c-4.876 0-8.829 3.953-8.829 8.829v0 14.342c0 4.876 3.953 8.829 8.829 8.829v0h14.342c4.876 0 8.829-3.953 8.829-8.829v0-14.342c0-4.876-3.953-8.829-8.829-8.829v0zM29.159 23.171c-0.004 3.306-2.683 5.984-5.988 5.988h-14.342c-3.306-0.004-5.984-2.683-5.988-5.988v-14.342c0.012-3.302 2.686-5.976 5.987-5.988h14.343c3.306 0.004 5.984 2.683 5.988 5.988v14.342z"></path>
<path d="M16 7.763c-4.544 0-8.26 3.693-8.26 8.237 0.004 4.56 3.7 8.256 8.26 8.26h0c4.561-0.004 8.257-3.701 8.26-8.261v-0c0-4.543-3.716-8.236-8.26-8.236zM16 21.421c-2.982 0-5.42-2.415-5.42-5.396 0.023-3.007 2.438-5.421 5.42-5.421s5.42 2.415 5.42 5.396c-0.008 2.99-2.43 5.411-5.419 5.42h-0.001zM24.592 5.348c-0.005-0-0.010-0-0.015-0-0.57 0-1.086 0.236-1.453 0.616l-0.001 0.001c-0.378 0.378-0.614 0.922-0.614 1.466 0 0.545 0.212 1.089 0.615 1.469 0.378 0.378 0.922 0.614 1.468 0.614 0.005 0 0.010 0 0.015 0 0.57 0 1.084-0.236 1.452-0.615l0-0.001c0.378-0.378 0.615-0.922 0.615-1.468 0-0.004 0-0.009 0-0.014 0-0.57-0.236-1.084-0.615-1.452l-0.001-0c-0.362-0.38-0.872-0.617-1.437-0.617-0.011 0-0.022 0-0.034 0l0.002-0z"></path>
</symbol>
<symbol id="icon-facebook" viewBox="0 0 32 32">
<path d="M18.396 10.487v-2.771c0-0.416 0.029-0.745 0.058-0.953 0.033-0.249 0.126-0.471 0.265-0.658l-0.003 0.004c0.145-0.209 0.348-0.359 0.637-0.448 0.291-0.089 0.698-0.119 1.191-0.119h2.7v-5.542h-4.326c-2.497 0-4.268 0.596-5.343 1.818-1.073 1.222-1.625 2.979-1.625 5.363v3.306h-3.223v5.513h3.223v16h6.444v-16h4.298l0.58-5.513h-4.877z"></path>
</symbol>
<symbol id="icon-arrow-right" viewBox="0 0 32 32">
<path d="M10.182 2.909l11.636 13.091-11.636 13.091"></path>
</symbol>
<symbol id="icon-arrow-down" viewBox="0 0 32 32">
<path d="M4.614 7.274l8.685 9.309c1.088 1.162 2.714 1.162 3.802 0l8.685-9.312c1.088-1.162 2.714-1.162 3.802 0 1.085 1.165 1.085 2.912 0 4.074l-12.486 13.382c-1.088 1.165-2.714 1.165-3.802 0l-12.486-13.382c-0.503-0.529-0.813-1.246-0.813-2.035s0.31-1.507 0.814-2.036l-0.001 0.001c1.088-1.165 2.717-1.165 3.802 0z"></path>
</symbol>
</defs>
</svg>
